# This file uses centimeters as units for non-parametric coordinates.

mtllib poster.mtl
g default
v 0.475439 0.699884 1.275035
v 0.533841 0.699884 1.275035
v 0.475439 2.650957 1.275035
v 0.533841 2.650957 1.275035
v 0.475439 2.650957 0.275035
v 0.533841 2.650957 0.275035
v 0.475439 0.699884 0.275035
v 0.533841 0.699884 0.275035
v 0.475439 0.729884 0.305035
v 0.475439 0.729884 1.245035
v 0.475439 2.620957 1.245035
v 0.475439 2.620957 0.305035
v 0.465439 0.699884 0.275035
v 0.465439 0.699884 1.275035
v 0.465439 0.729884 1.245035
v 0.465439 0.729884 0.305035
v 0.465439 2.650957 1.275035
v 0.465439 2.620957 1.245035
v 0.465439 2.650957 0.275035
v 0.465439 2.620957 0.305035
vt 3.155881 1.079159
vt 3.165919 1.088002
vt 3.420610 1.514985
vt 3.155995 1.556864
vt 3.645216 1.515027
vt 3.414153 1.556732
vt 3.645298 1.076805
vt 3.414077 1.079140
vt 3.635899 1.518420
vt 3.420610 1.518407
vt 3.420611 1.946982
vt 3.635897 1.946996
vt 3.649263 1.077998
vt 3.154113 1.077703
vt 3.865934 1.084677
vt 3.634259 1.519840
vt 3.154241 1.558335
vt 3.865978 1.507089
vt 3.415922 1.558186
vt 3.656009 1.507110
vt 3.634181 1.945674
vt 3.655965 1.084698
vt 3.649308 1.513812
vt 3.415845 1.077688
vt 3.422249 1.945561
vt 3.872679 1.513789
vt 3.422326 1.519728
vt 3.872635 1.077975
vt 3.647705 1.942303
vt 3.647686 1.519947
vt 3.857646 1.942294
vt 3.857628 1.519938
vt 3.403422 1.087224
vt 3.420693 1.076763
vt 3.404095 1.547911
vt 3.166632 1.548755
vn 0.000000 0.000000 1.000000
vn 0.000000 0.000000 1.000000
vn 0.000000 0.000000 1.000000
vn 0.000000 0.000000 1.000000
vn 0.000000 1.000000 0.000000
vn 0.000000 1.000000 0.000000
vn 0.000000 1.000000 0.000000
vn 0.000000 1.000000 0.000000
vn 0.000000 0.000000 -1.000000
vn 0.000000 0.000000 -1.000000
vn 0.000000 0.000000 -1.000000
vn 0.000000 0.000000 -1.000000
vn 0.000000 -1.000000 0.000000
vn 0.000000 -1.000000 0.000000
vn 0.000000 -1.000000 0.000000
vn 0.000000 -1.000000 0.000000
vn 1.000000 0.000000 0.000000
vn 1.000000 0.000000 0.000000
vn 1.000000 0.000000 0.000000
vn 1.000000 0.000000 0.000000
vn -1.000000 0.000000 0.000000
vn -1.000000 0.000000 0.000000
vn -1.000000 0.000000 0.000000
vn -1.000000 0.000000 0.000000
vn -1.000000 -0.000000 0.000000
vn -1.000000 -0.000000 0.000000
vn -1.000000 -0.000000 0.000000
vn -1.000000 -0.000000 0.000000
vn -1.000000 0.000000 0.000000
vn -1.000000 0.000000 0.000000
vn -1.000000 0.000000 0.000000
vn -1.000000 0.000000 0.000000
vn 0.000000 -1.000000 0.000000
vn 0.000000 -1.000000 0.000000
vn 0.000000 1.000000 0.000000
vn 0.000000 1.000000 0.000000
vn 0.000000 1.000000 0.000000
vn 0.000000 1.000000 0.000000
vn 0.000000 0.000000 1.000000
vn 0.000000 0.000000 1.000000
vn 0.000000 0.000000 -1.000000
vn 0.000000 0.000000 -1.000000
vn 0.000000 0.000000 -1.000000
vn 0.000000 0.000000 -1.000000
vn 0.000000 1.000000 0.000000
vn 0.000000 1.000000 0.000000
vn 0.000000 -1.000000 0.000000
vn 0.000000 -1.000000 0.000000
vn 0.000000 -1.000000 0.000000
vn 0.000000 -1.000000 0.000000
vn 0.000000 0.000000 -1.000000
vn 0.000000 0.000000 -1.000000
vn 0.000000 0.000000 1.000000
vn 0.000000 0.000000 1.000000
vn 0.000000 0.000000 1.000000
vn 0.000000 0.000000 1.000000
s 1
g pasted__pCube9
usemtl pasted__blinn11SG
f 1/1/1 2/2/2 4/36/3 3/4/4
s 2
f 3/4/5 4/36/6 6/35/7 5/6/8
s 3
f 5/6/9 6/35/10 8/33/11 7/8/12
s 4
f 7/8/13 8/33/14 2/2/15 1/1/16
s off
f 2/34/17 8/7/18 6/5/19 4/3/20
f 9/30/21 10/32/22 11/31/23 12/29/24
s 5
f 13/13/25 14/28/26 15/15/27 16/22/28
f 14/28/26 17/26/29 18/18/30 15/15/27
f 17/26/29 19/23/31 20/20/32 18/18/30
f 19/23/31 13/13/25 16/22/28 20/20/32
s 4
f 7/8/13 1/1/16 14/14/33 13/24/34
s off
f 10/10/35 9/9/36 16/16/37 15/27/38
s 1
f 1/1/1 3/4/4 17/17/39 14/14/40
s off
f 11/11/41 10/10/42 15/27/43 18/25/44
s 2
f 3/4/5 5/6/8 19/19/45 17/17/46
s off
f 12/12/47 11/11/48 18/25/49 20/21/50
s 3
f 5/6/9 7/8/12 13/24/51 19/19/52
s off
f 9/9/53 12/12/54 20/21/55 16/16/56
g default
v 0.475439 0.699884 2.397608
v 0.533841 0.699884 2.397608
v 0.475439 2.650957 2.397608
v 0.533841 2.650957 2.397608
v 0.475439 2.650957 1.397608
v 0.533841 2.650957 1.397608
v 0.475439 0.699884 1.397608
v 0.533841 0.699884 1.397608
v 0.475439 0.729884 1.427608
v 0.475439 0.729884 2.367608
v 0.475439 2.620957 2.367608
v 0.475439 2.620957 1.427608
v 0.465439 0.699884 1.397608
v 0.465439 0.699884 2.397608
v 0.465439 0.729884 2.367608
v 0.465439 0.729884 1.427608
v 0.465439 2.650957 2.397608
v 0.465439 2.620957 2.367608
v 0.465439 2.650957 1.397608
v 0.465439 2.620957 1.427608
vt 3.155881 1.079159
vt 3.165919 1.088002
vt 3.420610 1.514985
vt 3.155995 1.556864
vt 3.645216 1.515027
vt 3.414153 1.556732
vt 3.645298 1.076805
vt 3.414077 1.079140
vt 3.635899 1.518420
vt 3.420610 1.518407
vt 3.420611 1.946982
vt 3.635897 1.946996
vt 3.649263 1.077998
vt 3.154113 1.077703
vt 3.865934 1.084677
vt 3.634259 1.519840
vt 3.154241 1.558335
vt 3.865978 1.507089
vt 3.415922 1.558186
vt 3.656009 1.507110
vt 3.634181 1.945674
vt 3.655965 1.084698
vt 3.649308 1.513812
vt 3.415845 1.077688
vt 3.422249 1.945561
vt 3.872679 1.513789
vt 3.422326 1.519728
vt 3.872635 1.077975
vt 3.647705 1.942303
vt 3.647686 1.519947
vt 3.857646 1.942294
vt 3.857628 1.519938
vt 3.403422 1.087224
vt 3.420693 1.076763
vt 3.404095 1.547911
vt 3.166632 1.548755
vn 0.000000 0.000000 1.000000
vn 0.000000 0.000000 1.000000
vn 0.000000 0.000000 1.000000
vn 0.000000 0.000000 1.000000
vn 0.000000 1.000000 0.000000
vn 0.000000 1.000000 0.000000
vn 0.000000 1.000000 0.000000
vn 0.000000 1.000000 0.000000
vn 0.000000 0.000000 -1.000000
vn 0.000000 0.000000 -1.000000
vn 0.000000 0.000000 -1.000000
vn 0.000000 0.000000 -1.000000
vn 0.000000 -1.000000 0.000000
vn 0.000000 -1.000000 0.000000
vn 0.000000 -1.000000 0.000000
vn 0.000000 -1.000000 0.000000
vn 1.000000 0.000000 0.000000
vn 1.000000 0.000000 0.000000
vn 1.000000 0.000000 0.000000
vn 1.000000 0.000000 0.000000
vn -1.000000 0.000000 0.000000
vn -1.000000 0.000000 0.000000
vn -1.000000 0.000000 0.000000
vn -1.000000 0.000000 0.000000
vn -1.000000 -0.000000 0.000000
vn -1.000000 -0.000000 0.000000
vn -1.000000 -0.000000 0.000000
vn -1.000000 -0.000000 0.000000
vn -1.000000 0.000000 0.000000
vn -1.000000 0.000000 0.000000
vn -1.000000 0.000000 0.000000
vn -1.000000 0.000000 0.000000
vn 0.000000 -1.000000 0.000000
vn 0.000000 -1.000000 0.000000
vn 0.000000 1.000000 0.000000
vn 0.000000 1.000000 0.000000
vn 0.000000 1.000000 0.000000
vn 0.000000 1.000000 0.000000
vn 0.000000 0.000000 1.000000
vn 0.000000 0.000000 1.000000
vn 0.000000 0.000000 -1.000000
vn 0.000000 0.000000 -1.000000
vn 0.000000 0.000000 -1.000000
vn 0.000000 0.000000 -1.000000
vn 0.000000 1.000000 0.000000
vn 0.000000 1.000000 0.000000
vn 0.000000 -1.000000 0.000000
vn 0.000000 -1.000000 0.000000
vn 0.000000 -1.000000 0.000000
vn 0.000000 -1.000000 0.000000
vn 0.000000 0.000000 -1.000000
vn 0.000000 0.000000 -1.000000
vn 0.000000 0.000000 1.000000
vn 0.000000 0.000000 1.000000
vn 0.000000 0.000000 1.000000
vn 0.000000 0.000000 1.000000
s 1
g pasted__pCube86
usemtl pasted__blinn11SG
f 21/37/57 22/38/58 24/72/59 23/40/60
s 2
f 23/40/61 24/72/62 26/71/63 25/42/64
s 3
f 25/42/65 26/71/66 28/69/67 27/44/68
s 4
f 27/44/69 28/69/70 22/38/71 21/37/72
s off
f 22/70/73 28/43/74 26/41/75 24/39/76
f 29/66/77 30/68/78 31/67/79 32/65/80
s 5
f 33/49/81 34/64/82 35/51/83 36/58/84
f 34/64/82 37/62/85 38/54/86 35/51/83
f 37/62/85 39/59/87 40/56/88 38/54/86
f 39/59/87 33/49/81 36/58/84 40/56/88
s 4
f 27/44/69 21/37/72 34/50/89 33/60/90
s off
f 30/46/91 29/45/92 36/52/93 35/63/94
s 1
f 21/37/57 23/40/60 37/53/95 34/50/96
s off
f 31/47/97 30/46/98 35/63/99 38/61/100
s 2
f 23/40/61 25/42/64 39/55/101 37/53/102
s off
f 32/48/103 31/47/104 38/61/105 40/57/106
s 3
f 25/42/65 27/44/68 33/60/107 39/55/108
s off
f 29/45/109 32/48/110 40/57/111 36/52/112
